<svg width="68" height="68" viewBox="0 0 34 34"  xmlns="http://www.w3.org/2000/svg"><path class="cls-1" fill="#354c55" fill-rule="evenodd" d="M150.933,49l8.923-15.448a1.032,1.032,0,0,0,0-1.036A1.048,1.048,0,0,0,158.948,32H140.507a1.048,1.048,0,0,0-.9.512l-9.463,15.964a1.027,1.027,0,0,0,0,1.052L139.6,65.488a1.047,1.047,0,0,0,.9.512h18.441a1.048,1.048,0,0,0,.905-0.518,1.033,1.033,0,0,0,0-1.037Zm-1.2-2.088-7.415-12.838h14.829ZM140.5,35.1L148.521,49l-8.026,13.9L132.258,49Zm1.818,28.822,7.415-12.838,7.414,12.838H142.313Z" transform="translate(-128 -32)"></path></svg>